<svg xmlns="http://www.w3.org/2000/svg" height="447" width="960.0" font-size="16" font-family="sans-serif" stroke-width="2">
<g transform="translate(10.0 0)">
<g fill="hsl(0, 100%, 40%)">
<text y="22">getPathType.get file.PathReader: get file</text>
<text y="22" x="883.7035654049156" text-anchor="end">1.79 μs</text>
</g>
<g>
<title>1.79 μs ± 114 ns</title>
<rect y="28" rx="5" height="22" width="883.7035654049156" fill="hsl(0, 100%, 80%)" stroke="hsl(0, 100%, 55%)" />
<g stroke="hsl(0, 100%, 40%)"><line x1="827.4071308098312" x2="940.0" y1="39" y2="39" />
<line x1="827.4071308098312" x2="827.4071308098312" y1="33" y2="45" />
<line x1="940.0" x2="940.0" y1="33" y2="45" />
</g>
</g>
<g fill="hsl(45, 100%, 40%)">
<text y="77">getPathType.get file.PosixCompat: get file</text>
<text y="77" x="432.99045295494784" text-anchor="end">878  ns</text>
</g>
<g>
<title>878  ns ±  87 ns</title>
<rect y="83" rx="5" height="22" width="432.99045295494784" fill="hsl(45, 100%, 80%)" stroke="hsl(45, 100%, 55%)" />
<g stroke="hsl(45, 100%, 40%)"><line x1="390.01928918463074" x2="475.96161672526495" y1="94" y2="94" />
<line x1="390.01928918463074" x2="390.01928918463074" y1="88" y2="100" />
<line x1="475.96161672526495" x2="475.96161672526495" y1="88" y2="100" />
</g>
</g>
<g fill="hsl(90, 100%, 40%)">
<text y="132">getPathType.get dir.PathReader: get dir</text>
<text y="132" x="601.5676998984669" text-anchor="end">1.22 μs</text>
</g>
<g>
<title>1.22 μs ±  85 ns</title>
<rect y="138" rx="5" height="22" width="601.5676998984669" fill="hsl(90, 100%, 80%)" stroke="hsl(90, 100%, 55%)" />
<g stroke="hsl(90, 100%, 40%)"><line x1="559.8723704194742" x2="643.2630293774596" y1="149" y2="149" />
<line x1="559.8723704194742" x2="559.8723704194742" y1="143" y2="155" />
<line x1="643.2630293774596" x2="643.2630293774596" y1="143" y2="155" />
</g>
</g>
<g fill="hsl(135, 100%, 40%)">
<text y="187">getPathType.get dir.PosixCompat: get dir</text>
<text y="187" x="396.6158651708021" text-anchor="end">805  ns</text>
</g>
<g>
<title>805  ns ±  43 ns</title>
<rect y="193" rx="5" height="22" width="396.6158651708021" fill="hsl(135, 100%, 80%)" stroke="hsl(135, 100%, 55%)" />
<g stroke="hsl(135, 100%, 40%)"><line x1="375.52121705419853" x2="417.7105132874057" y1="204" y2="204" />
<line x1="375.52121705419853" x2="375.52121705419853" y1="198" y2="210" />
<line x1="417.7105132874057" x2="417.7105132874057" y1="198" y2="210" />
</g>
</g>
<text fill="hsl(180, 100%, 40%)" y="242">getPathType.get file link.PathReader: get file link 667  ns</text>
<g>
<title>667  ns ±  50 ns</title>
<rect y="248" rx="5" height="22" width="328.75508714222184" fill="hsl(180, 100%, 80%)" stroke="hsl(180, 100%, 55%)" />
<g stroke="hsl(180, 100%, 40%)"><line x1="304.1218228961258" x2="353.38835138831786" y1="259" y2="259" />
<line x1="304.1218228961258" x2="304.1218228961258" y1="253" y2="265" />
<line x1="353.38835138831786" x2="353.38835138831786" y1="253" y2="265" />
</g>
</g>
<text fill="hsl(225, 100%, 40%)" y="297">getPathType.get file link.PosixCompat: get file link 906  ns</text>
<g>
<title>906  ns ±  87 ns</title>
<rect y="303" rx="5" height="22" width="446.44981455531035" fill="hsl(225, 100%, 80%)" stroke="hsl(225, 100%, 55%)" />
<g stroke="hsl(225, 100%, 40%)"><line x1="403.54766809596134" x2="489.35196101465937" y1="314" y2="314" />
<line x1="403.54766809596134" x2="403.54766809596134" y1="308" y2="320" />
<line x1="489.35196101465937" x2="489.35196101465937" y1="308" y2="320" />
</g>
</g>
<text fill="hsl(270, 100%, 40%)" y="352">getPathType.get dir link.PathReader: get dir link 665  ns</text>
<g>
<title>665  ns ±  45 ns</title>
<rect y="358" rx="5" height="22" width="327.7296870935531" fill="hsl(270, 100%, 80%)" stroke="hsl(270, 100%, 55%)" />
<g stroke="hsl(270, 100%, 40%)"><line x1="305.57217238804094" x2="349.8872017990652" y1="369" y2="369" />
<line x1="305.57217238804094" x2="305.57217238804094" y1="363" y2="375" />
<line x1="349.8872017990652" x2="349.8872017990652" y1="363" y2="375" />
</g>
</g>
<text fill="hsl(315, 100%, 40%)" y="407">getPathType.get dir link.PosixCompat: get dir link 824  ns</text>
<g>
<title>824  ns ±  41 ns</title>
<rect y="413" rx="5" height="22" width="406.21913101121896" fill="hsl(315, 100%, 80%)" stroke="hsl(315, 100%, 55%)" />
<g stroke="hsl(315, 100%, 40%)"><line x1="385.9645221652555" x2="426.4737398571824" y1="424" y2="424" />
<line x1="385.9645221652555" x2="385.9645221652555" y1="418" y2="430" />
<line x1="426.4737398571824" x2="426.4737398571824" y1="418" y2="430" />
</g>
</g>
</g>
</svg>
